<svg version="1.1" id="Layer_1" xmlns="http://www.w3.org/2000/svg" xmlns:xlink="http://www.w3.org/1999/xlink" x="0px" y="0px"
	 width="100%" viewBox="0 0 1604 544" enable-background="new 0 0 1604 544" xml:space="preserve">
<path fill="#F7EAD8" opacity="1.000000" stroke="none" 
	d="
M1130.000000,545.000000 
	C753.377014,545.000000 377.254059,545.000000 1.065549,545.000000 
	C1.065549,363.731445 1.065549,182.462875 1.065549,1.097147 
	C535.666687,1.097147 1070.333374,1.097147 1604.971924,1.097147 
	C1604.971924,182.412872 1604.971924,363.706451 1604.971924,545.000000 
	C1446.795898,545.000000 1288.647949,545.000000 1130.000000,545.000000 
M338.290192,282.392517 
	C339.031433,284.423553 339.796387,286.446259 340.510162,288.486908 
	C345.370636,302.383362 348.831512,316.541473 348.299438,331.410614 
	C347.959656,340.906250 343.117828,346.985931 333.781647,349.011902 
	C305.195923,355.215179 278.986145,350.155365 255.615173,332.092010 
	C253.196976,330.223022 250.684235,328.476379 248.327713,326.755035 
	C244.167938,340.425598 240.176239,353.543823 235.928238,367.504364 
	C244.512772,371.898651 253.974335,377.102509 263.733673,381.670135 
	C293.484650,395.594574 324.529877,404.886627 357.477386,407.218781 
	C360.909790,407.461731 362.418640,406.641571 363.333313,403.168854 
	C365.954895,393.215637 369.162201,383.417969 371.864075,373.484314 
	C374.399506,364.162598 380.004486,359.123718 389.732758,357.247620 
	C399.447784,355.374054 409.227753,352.745544 418.307434,348.872894 
	C445.956909,337.079895 462.402344,316.585022 464.530914,285.835205 
	C465.136505,277.086884 459.357788,271.113373 450.553406,270.763184 
	C441.255676,270.393372 431.928589,269.915405 422.704987,268.760712 
	C412.978302,267.542999 405.306610,263.307770 401.440338,253.212158 
	C399.596893,248.398590 396.086670,243.954529 392.497467,240.124695 
	C376.482361,223.035843 356.280548,219.584167 334.299500,223.682236 
	C326.802063,225.080002 319.580536,227.957764 313.076782,229.906448 
	C321.756714,247.863663 329.921204,264.754486 338.290192,282.392517 
M1114.259155,292.669495 
	C1107.573608,313.067352 1101.007935,333.505859 1094.107910,353.830902 
	C1092.618408,358.218201 1093.688599,360.335205 1098.005615,360.550262 
	C1105.781372,360.937653 1113.577637,360.894257 1121.359375,361.187653 
	C1124.927979,361.322205 1126.165039,359.434021 1127.029907,356.317932 
	C1129.554932,347.219757 1132.362549,338.200012 1134.985474,329.398041 
	C1151.393799,329.398041 1167.318359,329.398041 1183.057495,329.398041 
	C1185.531250,336.821381 1187.431152,344.114899 1190.445068,350.914703 
	C1192.024536,354.478027 1194.964600,358.588806 1198.320679,359.997681 
	C1208.241089,364.162140 1218.335938,362.886871 1228.021973,358.399048 
	C1227.919189,357.386230 1227.954590,356.872833 1227.808228,356.417847 
	C1212.628662,309.211517 1197.475342,261.996582 1182.085938,214.858688 
	C1181.522217,213.131882 1178.675293,211.078552 1176.832520,211.018555 
	C1166.374390,210.678116 1155.897217,210.979446 1145.428101,210.882355 
	C1141.994995,210.850525 1140.588257,212.335266 1139.554688,215.544342 
	C1131.342041,241.043640 1122.921997,266.476166 1114.259155,292.669495 
M817.500061,331.828857 
	C808.427856,331.828857 799.355591,331.828857 790.608032,331.828857 
	C790.608032,320.888306 790.608032,310.492889 790.608032,299.841064 
	C792.744080,299.841064 794.399536,299.841125 796.054993,299.841095 
	C808.721130,299.840912 821.390320,299.686584 834.051453,299.938080 
	C837.668457,300.009918 839.386719,298.903473 839.456238,295.393677 
	C839.580994,289.098907 839.759644,282.800415 839.655029,276.507812 
	C839.593628,272.816620 837.784180,271.248291 833.665039,271.375000 
	C822.675842,271.712952 811.669495,271.489929 800.669922,271.489899 
	C797.383850,271.489899 794.097778,271.489899 790.473938,271.489899 
	C790.473938,260.987488 790.473938,251.093262 790.473938,240.759216 
	C810.327332,240.759216 829.936462,240.759216 849.401611,240.759216 
	C853.030273,232.070023 853.259644,223.478210 851.782349,214.835327 
	C851.562805,213.551147 849.413147,211.639938 848.146484,211.632141 
	C818.815430,211.451340 789.483032,211.520233 760.151001,211.457993 
	C756.873413,211.451035 755.875427,212.768860 755.881836,215.958694 
	C755.965637,257.623413 755.869934,299.288635 756.001160,340.953125 
	C756.039978,353.269775 762.777771,360.585663 774.992981,360.823700 
	C795.649719,361.226227 816.323792,361.135223 836.983704,360.811127 
	C846.851196,360.656311 853.140991,355.906830 855.283325,347.487335 
	C856.526062,342.603607 856.643738,337.433594 857.337402,331.828918 
	C843.751099,331.828918 831.125610,331.828918 817.500061,331.828857 
M627.736511,271.499451 
	C627.736511,300.947479 627.736511,330.395477 627.736511,359.703186 
	C636.589050,362.511200 656.344055,362.263885 662.639832,359.314667 
	C662.639832,351.923401 662.639832,344.432709 662.639832,336.941986 
	C662.639832,329.355530 662.639832,321.769104 662.639832,314.286224 
	C672.082764,313.826385 680.938721,313.945557 689.643494,312.856384 
	C707.659485,310.602081 721.973633,302.367523 728.950134,284.745300 
	C735.013611,269.429230 734.887207,253.776184 728.876953,238.408142 
	C724.327515,226.775436 715.971497,218.343872 704.147217,214.592331 
	C696.031067,212.017258 687.304871,210.458740 678.800171,210.211929 
	C663.331238,209.763046 647.825134,210.738815 632.332397,210.867798 
	C628.409363,210.900467 627.656494,212.545868 627.680115,216.014755 
	C627.803711,234.175598 627.737061,252.337738 627.736511,271.499451 
M1027.104370,343.497192 
	C1027.104370,333.724976 1027.104370,323.952759 1027.104370,313.769135 
	C1033.859497,313.769135 1040.011963,313.994141 1046.143677,313.731140 
	C1076.871948,312.413177 1094.776367,296.686493 1097.412964,267.915314 
	C1099.099487,249.510849 1095.311035,232.550400 1079.704956,220.506332 
	C1069.559814,212.676773 1057.587524,209.914230 1044.961548,210.042252 
	C1029.464966,210.199356 1013.970520,210.823929 998.475891,210.798950 
	C993.354858,210.790695 992.057556,212.446793 992.076721,217.415558 
	C992.253601,263.247284 992.181335,309.079987 992.181519,354.912384 
	C992.181519,356.544525 992.181458,358.176666 992.181458,360.090485 
	C1004.060120,362.157166 1015.489685,362.354553 1027.104370,359.981567 
	C1027.104370,354.474487 1027.104370,349.484802 1027.104370,343.497192 
M503.169556,231.674866 
	C508.329865,220.323059 513.791382,209.095154 518.531433,197.570496 
	C521.149475,191.205185 518.670593,188.781433 511.959900,190.211624 
	C505.461121,191.596680 498.918243,192.867630 492.533478,194.677979 
	C470.938232,200.801086 450.148560,198.883545 429.845184,189.409210 
	C417.196167,183.506683 404.425720,177.833954 391.499878,172.573868 
	C387.709534,171.031418 383.093689,170.365555 379.041107,170.848816 
	C369.312927,172.008911 359.752167,174.875900 350.016418,175.590927 
	C338.762054,176.417511 329.251923,180.420517 320.299896,186.904907 
	C313.300507,191.974915 305.748413,196.277115 298.674713,201.251541 
	C295.744110,203.312408 292.797363,205.908401 294.188873,210.391876 
	C295.530975,214.716232 299.012360,216.698074 302.919342,216.503220 
	C307.622070,216.268646 312.559937,215.450867 316.867828,213.633560 
	C327.915863,208.972870 338.212646,202.021362 350.245972,203.829407 
	C352.618530,199.775406 354.155273,195.329712 357.165009,192.394318 
	C363.020081,186.683807 370.319336,187.537598 377.252289,190.494080 
	C387.187286,194.730728 396.979462,199.302734 406.824402,203.749741 
	C410.119385,205.238068 413.389221,206.782059 416.670563,208.300613 
	C415.042328,208.938080 413.666992,208.987259 412.451202,208.570679 
	C402.724579,205.237839 393.028076,201.816971 383.322418,198.422928 
	C378.795288,196.839798 374.373169,194.641174 369.711670,193.846176 
	C365.054413,193.051910 360.823273,194.934006 358.708862,199.735672 
	C356.629059,204.458893 357.546936,208.572128 362.148712,212.032501 
	C365.710022,214.710449 369.611115,217.113052 373.684265,218.902634 
	C389.849854,226.005173 405.509247,233.920670 419.829498,244.392120 
	C427.025726,249.654236 435.321075,251.680328 443.995697,248.884323 
	C456.856537,244.738983 469.893890,243.435303 483.349579,244.198853 
	C492.217377,244.702042 499.147369,240.858383 503.169556,231.674866 
M274.720886,333.807922 
	C293.140259,344.532654 312.672821,346.163727 333.040466,340.936554 
	C340.546692,339.010132 341.864166,337.257996 341.698303,329.411987 
	C341.666687,327.915802 341.574341,326.416382 341.418823,324.927979 
	C337.519440,287.612915 319.103821,256.469666 299.859833,225.804260 
	C298.812042,225.890244 298.281403,225.817917 297.848541,225.990677 
	C296.461975,226.544083 295.073334,227.115326 293.753052,227.808350 
	C276.464508,236.883255 264.086975,250.576569 258.289368,269.118164 
	C254.342911,281.739471 252.434784,295.008789 249.872925,308.038971 
	C249.552078,309.670776 250.245697,312.220123 251.425049,313.311737 
	C258.836365,320.171722 266.518280,326.739288 274.720886,333.807922 
M937.815369,318.500061 
	C937.815369,292.564606 937.815369,266.629150 937.815369,240.504211 
	C944.297363,240.504211 950.421448,240.673767 956.533142,240.471832 
	C973.640625,239.906662 978.567261,233.405594 975.472290,216.431046 
	C974.760498,212.526794 973.343750,211.371948 969.382690,211.392181 
	C936.729797,211.558975 904.075745,211.483475 871.421997,211.495575 
	C869.803772,211.496170 868.185547,211.628418 866.057739,211.721710 
	C866.057739,221.497757 866.057739,230.813171 866.057739,240.371490 
	C878.774963,240.371490 890.545288,240.371490 902.788269,240.371490 
	C902.788269,280.360291 902.788269,320.104767 902.788269,360.089752 
	C914.736511,362.181976 926.180786,362.307129 937.815735,359.924438 
	C937.815735,346.138275 937.815735,332.819153 937.815369,318.500061 
M1281.329712,308.500397 
	C1281.330200,294.507965 1281.363892,280.515472 1281.321411,266.523163 
	C1281.282471,253.698761 1281.453491,240.863968 1280.987549,228.053558 
	C1280.585693,217.009674 1273.372803,210.386444 1262.323486,210.044525 
	C1258.662109,209.931229 1254.982666,210.188934 1251.333740,209.944214 
	C1247.626221,209.695587 1246.387573,211.116730 1246.395874,214.821350 
	C1246.489136,256.298828 1246.373413,297.776886 1246.500732,339.254242 
	C1246.545898,353.983368 1253.733521,360.924622 1268.432373,360.989380 
	C1284.090210,361.058380 1299.750488,361.151947 1315.406494,360.966675 
	C1334.277832,360.743408 1341.284668,349.888672 1338.866943,331.336853 
	C1319.912476,331.336853 1300.974854,331.336853 1281.328125,331.336853 
	C1281.328125,324.036377 1281.328125,316.768372 1281.329712,308.500397 
M576.321594,156.499954 
	C576.321594,251.063309 576.321594,345.626678 576.321594,440.407104 
	C579.364868,440.407104 581.937195,440.407104 584.731812,440.407104 
	C584.731812,337.839874 584.731812,235.530716 584.731812,133.283066 
	C581.828369,133.283066 579.255005,133.283066 576.321838,133.283066 
	C576.321838,140.897049 576.321838,148.198517 576.321594,156.499954 
z"/>
<path fill="#020202" opacity="1.000000" stroke="none" 
	d="
M338.187927,282.018921 
	C329.921204,264.754486 321.756714,247.863663 313.076782,229.906448 
	C319.580536,227.957764 326.802063,225.080002 334.299500,223.682236 
	C356.280548,219.584167 376.482361,223.035843 392.497467,240.124695 
	C396.086670,243.954529 399.596893,248.398590 401.440338,253.212158 
	C405.306610,263.307770 412.978302,267.542999 422.704987,268.760712 
	C431.928589,269.915405 441.255676,270.393372 450.553406,270.763184 
	C459.357788,271.113373 465.136505,277.086884 464.530914,285.835205 
	C462.402344,316.585022 445.956909,337.079895 418.307434,348.872894 
	C409.227753,352.745544 399.447784,355.374054 389.732758,357.247620 
	C380.004486,359.123718 374.399506,364.162598 371.864075,373.484314 
	C369.162201,383.417969 365.954895,393.215637 363.333313,403.168854 
	C362.418640,406.641571 360.909790,407.461731 357.477386,407.218781 
	C324.529877,404.886627 293.484650,395.594574 263.733673,381.670135 
	C253.974335,377.102509 244.512772,371.898651 235.928238,367.504364 
	C240.176239,353.543823 244.167938,340.425598 248.327713,326.755035 
	C250.684235,328.476379 253.196976,330.223022 255.615173,332.092010 
	C278.986145,350.155365 305.195923,355.215179 333.781647,349.011902 
	C343.117828,346.985931 347.959656,340.906250 348.299438,331.410614 
	C348.831512,316.541473 345.370636,302.383362 340.510162,288.486908 
	C339.796387,286.446259 339.031433,284.423553 338.187927,282.018921 
M372.259308,284.746216 
	C373.417450,284.843536 374.579620,285.057800 375.733093,285.018433 
	C381.584686,284.818817 385.739166,280.683563 385.974274,274.903900 
	C386.194397,269.492889 382.423309,264.942474 377.002472,264.077881 
	C372.180237,263.308807 367.188629,266.204742 365.401581,270.808350 
	C363.406799,275.947052 365.546295,280.719788 372.259308,284.746216 
z"/>
<path fill="#030303" opacity="1.000000" stroke="none" 
	d="
M1114.412476,292.299377 
	C1122.921997,266.476166 1131.342041,241.043640 1139.554688,215.544342 
	C1140.588257,212.335266 1141.994995,210.850525 1145.428101,210.882355 
	C1155.897217,210.979446 1166.374390,210.678116 1176.832520,211.018555 
	C1178.675293,211.078552 1181.522217,213.131882 1182.085938,214.858688 
	C1197.475342,261.996582 1212.628662,309.211517 1227.808228,356.417847 
	C1227.954590,356.872833 1227.919189,357.386230 1228.021973,358.399048 
	C1218.335938,362.886871 1208.241089,364.162140 1198.320679,359.997681 
	C1194.964600,358.588806 1192.024536,354.478027 1190.445068,350.914703 
	C1187.431152,344.114899 1185.531250,336.821381 1183.057495,329.398041 
	C1167.318359,329.398041 1151.393799,329.398041 1134.985474,329.398041 
	C1132.362549,338.200012 1129.554932,347.219757 1127.029907,356.317932 
	C1126.165039,359.434021 1124.927979,361.322205 1121.359375,361.187653 
	C1113.577637,360.894257 1105.781372,360.937653 1098.005615,360.550262 
	C1093.688599,360.335205 1092.618408,358.218201 1094.107910,353.830902 
	C1101.007935,333.505859 1107.573608,313.067352 1114.412476,292.299377 
M1168.508789,275.856384 
	C1165.631592,265.058563 1162.754272,254.260727 1159.877075,243.462906 
	C1159.570557,243.494461 1159.264038,243.526031 1158.957520,243.557587 
	C1153.849365,262.837769 1148.741089,282.117950 1143.597168,301.533203 
	C1148.978271,301.533203 1154.111450,301.533203 1159.244629,301.533203 
	C1164.499634,301.533203 1169.754761,301.533203 1175.531616,301.533203 
	C1173.190063,292.908905 1170.979736,284.768494 1168.508789,275.856384 
z"/>
<path fill="#020202" opacity="1.000000" stroke="none" 
	d="
M818.000122,331.828888 
	C831.125610,331.828918 843.751099,331.828918 857.337402,331.828918 
	C856.643738,337.433594 856.526062,342.603607 855.283325,347.487335 
	C853.140991,355.906830 846.851196,360.656311 836.983704,360.811127 
	C816.323792,361.135223 795.649719,361.226227 774.992981,360.823700 
	C762.777771,360.585663 756.039978,353.269775 756.001160,340.953125 
	C755.869934,299.288635 755.965637,257.623413 755.881836,215.958694 
	C755.875427,212.768860 756.873413,211.451035 760.151001,211.457993 
	C789.483032,211.520233 818.815430,211.451340 848.146484,211.632141 
	C849.413147,211.639938 851.562805,213.551147 851.782349,214.835327 
	C853.259644,223.478210 853.030273,232.070023 849.401611,240.759216 
	C829.936462,240.759216 810.327332,240.759216 790.473938,240.759216 
	C790.473938,251.093262 790.473938,260.987488 790.473938,271.489899 
	C794.097778,271.489899 797.383850,271.489899 800.669922,271.489899 
	C811.669495,271.489929 822.675842,271.712952 833.665039,271.375000 
	C837.784180,271.248291 839.593628,272.816620 839.655029,276.507812 
	C839.759644,282.800415 839.580994,289.098907 839.456238,295.393677 
	C839.386719,298.903473 837.668457,300.009918 834.051453,299.938080 
	C821.390320,299.686584 808.721130,299.840912 796.054993,299.841095 
	C794.399536,299.841125 792.744080,299.841064 790.608032,299.841064 
	C790.608032,310.492889 790.608032,320.888306 790.608032,331.828857 
	C799.355591,331.828857 808.427856,331.828857 818.000122,331.828888 
z"/>
<path fill="#030303" opacity="1.000000" stroke="none" 
	d="
M627.736450,270.999451 
	C627.737061,252.337738 627.803711,234.175598 627.680115,216.014755 
	C627.656494,212.545868 628.409363,210.900467 632.332397,210.867798 
	C647.825134,210.738815 663.331238,209.763046 678.800171,210.211929 
	C687.304871,210.458740 696.031067,212.017258 704.147217,214.592331 
	C715.971497,218.343872 724.327515,226.775436 728.876953,238.408142 
	C734.887207,253.776184 735.013611,269.429230 728.950134,284.745300 
	C721.973633,302.367523 707.659485,310.602081 689.643494,312.856384 
	C680.938721,313.945557 672.082764,313.826385 662.639832,314.286224 
	C662.639832,321.769104 662.639832,329.355530 662.639832,336.941986 
	C662.639832,344.432709 662.639832,351.923401 662.639832,359.314667 
	C656.344055,362.263885 636.589050,362.511200 627.736511,359.703186 
	C627.736511,330.395477 627.736511,300.947479 627.736450,270.999451 
M665.478882,287.485596 
	C669.961853,287.285034 674.558777,287.630615 678.894592,286.725220 
	C682.964966,285.875275 687.539856,284.587769 690.530396,281.948944 
	C699.935791,273.649719 700.041504,251.659821 691.342773,242.513794 
	C683.019104,233.762085 672.490845,238.177322 662.627686,236.775543 
	C662.627686,253.147491 662.589050,268.606842 662.707153,284.065002 
	C662.715759,285.199036 663.857056,286.324402 665.478882,287.485596 
z"/>
<path fill="#030303" opacity="1.000000" stroke="none" 
	d="
M1027.104370,343.996155 
	C1027.104370,349.484802 1027.104370,354.474487 1027.104370,359.981567 
	C1015.489685,362.354553 1004.060120,362.157166 992.181458,360.090485 
	C992.181458,358.176666 992.181519,356.544525 992.181519,354.912384 
	C992.181335,309.079987 992.253601,263.247284 992.076721,217.415558 
	C992.057556,212.446793 993.354858,210.790695 998.475891,210.798950 
	C1013.970520,210.823929 1029.464966,210.199356 1044.961548,210.042252 
	C1057.587524,209.914230 1069.559814,212.676773 1079.704956,220.506332 
	C1095.311035,232.550400 1099.099487,249.510849 1097.412964,267.915314 
	C1094.776367,296.686493 1076.871948,312.413177 1046.143677,313.731140 
	C1040.011963,313.994141 1033.859497,313.769135 1027.104370,313.769135 
	C1027.104370,323.952759 1027.104370,333.724976 1027.104370,343.996155 
M1027.093506,244.575500 
	C1027.093506,258.688507 1027.093506,272.801514 1027.093506,287.032257 
	C1031.817627,287.032257 1036.099731,287.153168 1040.372925,287.009674 
	C1053.369141,286.573364 1060.104980,281.224304 1061.503174,268.480621 
	C1062.207764,262.060486 1061.176880,255.222839 1059.703613,248.858063 
	C1058.371582,243.103745 1054.026855,238.705261 1047.957886,237.841980 
	C1041.167847,236.876129 1034.215454,237.051804 1027.093506,236.719513 
	C1027.093506,239.632446 1027.093506,241.614700 1027.093506,244.575500 
z"/>
<path fill="#030302" opacity="1.000000" stroke="none" 
	d="
M503.055328,232.028625 
	C499.147369,240.858383 492.217377,244.702042 483.349579,244.198853 
	C469.893890,243.435303 456.856537,244.738983 443.995697,248.884323 
	C435.321075,251.680328 427.025726,249.654236 419.829498,244.392120 
	C405.509247,233.920670 389.849854,226.005173 373.684265,218.902634 
	C369.611115,217.113052 365.710022,214.710449 362.148712,212.032501 
	C357.546936,208.572128 356.629059,204.458893 358.708862,199.735672 
	C360.823273,194.934006 365.054413,193.051910 369.711670,193.846176 
	C374.373169,194.641174 378.795288,196.839798 383.322418,198.422928 
	C393.028076,201.816971 402.724579,205.237839 412.451202,208.570679 
	C413.666992,208.987259 415.042328,208.938080 416.670563,208.300613 
	C413.389221,206.782059 410.119385,205.238068 406.824402,203.749741 
	C396.979462,199.302734 387.187286,194.730728 377.252289,190.494080 
	C370.319336,187.537598 363.020081,186.683807 357.165009,192.394318 
	C354.155273,195.329712 352.618530,199.775406 350.245972,203.829407 
	C338.212646,202.021362 327.915863,208.972870 316.867828,213.633560 
	C312.559937,215.450867 307.622070,216.268646 302.919342,216.503220 
	C299.012360,216.698074 295.530975,214.716232 294.188873,210.391876 
	C292.797363,205.908401 295.744110,203.312408 298.674713,201.251541 
	C305.748413,196.277115 313.300507,191.974915 320.299896,186.904907 
	C329.251923,180.420517 338.762054,176.417511 350.016418,175.590927 
	C359.752167,174.875900 369.312927,172.008911 379.041107,170.848816 
	C383.093689,170.365555 387.709534,171.031418 391.499878,172.573868 
	C404.425720,177.833954 417.196167,183.506683 429.845184,189.409210 
	C450.148560,198.883545 470.938232,200.801086 492.533478,194.677979 
	C498.918243,192.867630 505.461121,191.596680 511.959900,190.211624 
	C518.670593,188.781433 521.149475,191.205185 518.531433,197.570496 
	C513.791382,209.095154 508.329865,220.323059 503.055328,232.028625 
z"/>
<path fill="#020202" opacity="1.000000" stroke="none" 
	d="
M274.415802,333.605743 
	C266.518280,326.739288 258.836365,320.171722 251.425049,313.311737 
	C250.245697,312.220123 249.552078,309.670776 249.872925,308.038971 
	C252.434784,295.008789 254.342911,281.739471 258.289368,269.118164 
	C264.086975,250.576569 276.464508,236.883255 293.753052,227.808350 
	C295.073334,227.115326 296.461975,226.544083 297.848541,225.990677 
	C298.281403,225.817917 298.812042,225.890244 299.859833,225.804260 
	C319.103821,256.469666 337.519440,287.612915 341.418823,324.927979 
	C341.574341,326.416382 341.666687,327.915802 341.698303,329.411987 
	C341.864166,337.257996 340.546692,339.010132 333.040466,340.936554 
	C312.672821,346.163727 293.140259,344.532654 274.415802,333.605743 
z"/>
<path fill="#030302" opacity="1.000000" stroke="none" 
	d="
M937.815552,319.000061 
	C937.815735,332.819153 937.815735,346.138275 937.815735,359.924438 
	C926.180786,362.307129 914.736511,362.181976 902.788269,360.089752 
	C902.788269,320.104767 902.788269,280.360291 902.788269,240.371490 
	C890.545288,240.371490 878.774963,240.371490 866.057739,240.371490 
	C866.057739,230.813171 866.057739,221.497757 866.057739,211.721710 
	C868.185547,211.628418 869.803772,211.496170 871.421997,211.495575 
	C904.075745,211.483475 936.729797,211.558975 969.382690,211.392181 
	C973.343750,211.371948 974.760498,212.526794 975.472290,216.431046 
	C978.567261,233.405594 973.640625,239.906662 956.533142,240.471832 
	C950.421448,240.673767 944.297363,240.504211 937.815369,240.504211 
	C937.815369,266.629150 937.815369,292.564606 937.815552,319.000061 
z"/>
<path fill="#040403" opacity="1.000000" stroke="none" 
	d="
M1281.328857,309.000366 
	C1281.328125,316.768372 1281.328125,324.036377 1281.328125,331.336853 
	C1300.974854,331.336853 1319.912476,331.336853 1338.866943,331.336853 
	C1341.284668,349.888672 1334.277832,360.743408 1315.406494,360.966675 
	C1299.750488,361.151947 1284.090210,361.058380 1268.432373,360.989380 
	C1253.733521,360.924622 1246.545898,353.983368 1246.500732,339.254242 
	C1246.373413,297.776886 1246.489136,256.298828 1246.395874,214.821350 
	C1246.387573,211.116730 1247.626221,209.695587 1251.333740,209.944214 
	C1254.982666,210.188934 1258.662109,209.931229 1262.323486,210.044525 
	C1273.372803,210.386444 1280.585693,217.009674 1280.987549,228.053558 
	C1281.453491,240.863968 1281.282471,253.698761 1281.321411,266.523163 
	C1281.363892,280.515472 1281.330200,294.507965 1281.328857,309.000366 
z"/>
<path fill="#131211" opacity="1.000000" stroke="none" 
	d="
M576.321716,155.999969 
	C576.321838,148.198517 576.321838,140.897049 576.321838,133.283066 
	C579.255005,133.283066 581.828369,133.283066 584.731812,133.283066 
	C584.731812,235.530716 584.731812,337.839874 584.731812,440.407104 
	C581.937195,440.407104 579.364868,440.407104 576.321594,440.407104 
	C576.321594,345.626678 576.321594,251.063309 576.321716,155.999969 
z"/>
<path fill="#EDE0CE" opacity="1.000000" stroke="none" 
	d="
M371.887238,284.596313 
	C365.546295,280.719788 363.406799,275.947052 365.401581,270.808350 
	C367.188629,266.204742 372.180237,263.308807 377.002472,264.077881 
	C382.423309,264.942474 386.194397,269.492889 385.974274,274.903900 
	C385.739166,280.683563 381.584686,284.818817 375.733093,285.018433 
	C374.579620,285.057800 373.417450,284.843536 371.887238,284.596313 
z"/>
<path fill="#EDE1D0" opacity="1.000000" stroke="none" 
	d="
M1168.639160,276.242249 
	C1170.979736,284.768494 1173.190063,292.908905 1175.531616,301.533203 
	C1169.754761,301.533203 1164.499634,301.533203 1159.244629,301.533203 
	C1154.111450,301.533203 1148.978271,301.533203 1143.597168,301.533203 
	C1148.741089,282.117950 1153.849365,262.837769 1158.957520,243.557587 
	C1159.264038,243.526031 1159.570557,243.494461 1159.877075,243.462906 
	C1162.754272,254.260727 1165.631592,265.058563 1168.639160,276.242249 
z"/>
<path fill="#F5E8D5" opacity="1.000000" stroke="none" 
	d="
M664.975342,287.469696 
	C663.857056,286.324402 662.715759,285.199036 662.707153,284.065002 
	C662.589050,268.606842 662.627686,253.147491 662.627686,236.775543 
	C672.490845,238.177322 683.019104,233.762085 691.342773,242.513794 
	C700.041504,251.659821 699.935791,273.649719 690.530396,281.948944 
	C687.539856,284.587769 682.964966,285.875275 678.894592,286.725220 
	C674.558777,287.630615 669.961853,287.285034 664.975342,287.469696 
z"/>
<path fill="#F4E7D6" opacity="1.000000" stroke="none" 
	d="
M1027.093506,244.086227 
	C1027.093506,241.614700 1027.093506,239.632446 1027.093506,236.719513 
	C1034.215454,237.051804 1041.167847,236.876129 1047.957886,237.841980 
	C1054.026855,238.705261 1058.371582,243.103745 1059.703613,248.858063 
	C1061.176880,255.222839 1062.207764,262.060486 1061.503174,268.480621 
	C1060.104980,281.224304 1053.369141,286.573364 1040.372925,287.009674 
	C1036.099731,287.153168 1031.817627,287.032257 1027.093506,287.032257 
	C1027.093506,272.801514 1027.093506,258.688507 1027.093506,244.086227 
z"/>
</svg>